<?xml version="1.0" encoding="UTF-8" standalone="no"?>
<svg
   xmlns:dc="http://purl.org/dc/elements/1.1/"
   xmlns:cc="http://creativecommons.org/ns#"
   xmlns:rdf="http://www.w3.org/1999/02/22-rdf-syntax-ns#"
   xmlns:svg="http://www.w3.org/2000/svg"
   xmlns="http://www.w3.org/2000/svg"
   xmlns:sodipodi="http://sodipodi.sourceforge.net/DTD/sodipodi-0.dtd"
   xmlns:inkscape="http://www.inkscape.org/namespaces/inkscape"
   version="1.1"
   x="0px"
   y="0px"
   viewBox="0 0 125 100"
   enable-background="new 0 0 100 100"
   xml:space="preserve"
   id="svg2"
   inkscape:version="0.91 r13725"
   sodipodi:docname="deepdivelogo.svg"
   width="125"
   height="100"><metadata
     id="metadata28"><rdf:RDF><cc:Work
         rdf:about=""><dc:format>image/svg+xml</dc:format><dc:type
           rdf:resource="http://purl.org/dc/dcmitype/StillImage" /><dc:title></dc:title></cc:Work></rdf:RDF></metadata><defs
     id="defs26" /><sodipodi:namedview
     pagecolor="#ffffff"
     bordercolor="#666666"
     borderopacity="1"
     objecttolerance="10"
     gridtolerance="10"
     guidetolerance="10"
     inkscape:pageopacity="0"
     inkscape:pageshadow="2"
     inkscape:window-width="1600"
     inkscape:window-height="1726"
     id="namedview24"
     showgrid="false"
     inkscape:zoom="5.3400704"
     inkscape:cx="6.5083472"
     inkscape:cy="40.765696"
     inkscape:window-x="0"
     inkscape:window-y="0"
     inkscape:window-maximized="0"
     inkscape:current-layer="svg2" /><path
     style="fill:#000000"
     inkscape:connector-curvature="0"
     id="path18"
     d="m 63.101018,27.27831 c -10.92739,0 -18.858385,7.935643 -18.858385,18.866132 l 0.0077,7.969728 0.09915,0 c 0.934242,10.298365 8.037897,23.421148 18.751481,23.421148 10.715133,0 17.824985,-13.122783 18.754581,-23.421148 l 0.103813,0 0,-7.969728 C 81.960958,35.213953 74.028399,27.27831 63.101008,27.27831 Z m 0,3.490629 c 9.023271,0 15.332122,6.287161 15.369306,15.299586 -16.81881,-7.751632 -30.737061,6.831995 -30.737061,0.07592 0,-9.054256 6.319697,-15.375503 15.367755,-15.375503 z m 15.364658,21.558859 c -0.20296,8.643684 -6.432797,21.71844 -15.364658,21.71844 -8.928759,0 -15.158596,-13.073204 -15.361558,-21.71844 l -0.0062,-0.257188 c 5.479006,-3.688035 30.740161,-7.465681 30.740161,-0.01239 z"
     sodipodi:nodetypes="scccscccssccscscccc" /><path
     style="fill:#000000"
     inkscape:connector-curvature="0"
     id="path14-3-6-1"
     d="M 100.69308,78.720126 C 111.96648,69.381598 117.45934,59.400499 117.02713,49.054641 116.3533,33.00935 101.62389,22.165336 100.99537,21.716166 l -2.007281,2.028683 c -0.115124,0.11635 11.242551,11.561751 10.790591,25.257555 -0.4633,14.039485 -2.46921,12.880338 -11.465346,27.953501 z"
     sodipodi:nodetypes="cccsscc" /><path
     style="fill:#000000"
     inkscape:connector-curvature="0"
     id="path14-3-6-7-2"
     d="M 89.468979,70.497679 C 97.573915,63.99305 101.52151,57.03909 101.20791,49.829358 100.71902,38.647853 90.123239,31.087148 89.671111,30.773968 l -1.443023,1.413172 c -0.08276,0.08105 8.088344,8.059935 7.766981,17.603876 -0.329429,9.783433 -1.772322,8.975132 -8.237991,19.476611 z"
     sodipodi:nodetypes="cccsscc" /><path
     style="fill:#000000"
     inkscape:connector-curvature="0"
     id="path14-3-6-1-9"
     d="M 22.721638,21.434056 C 11.448233,30.772584 5.9553754,40.753682 6.3875855,51.09954 7.0614103,67.144831 21.790828,77.988844 22.419349,78.438016 l 2.007279,-2.028683 C 24.541752,76.292983 13.184078,64.847581 13.636034,51.151777 14.099333,37.112291 16.105246,38.27144 25.101383,23.198277 Z"
     sodipodi:nodetypes="cccsscc" /><path
     style="fill:#000000"
     inkscape:connector-curvature="0"
     id="path14-3-6-7-2-3"
     d="m 33.945739,29.656503 c -8.104936,6.504628 -12.052534,13.458589 -11.738933,20.668321 0.488888,11.181504 11.084671,18.74221 11.536801,19.055389 l 1.443023,-1.413171 c 0.08275,-0.08105 -8.088345,-8.059935 -7.766982,-17.603876 0.329429,-9.783435 1.772322,-8.975133 8.237991,-19.476612 z"
     sodipodi:nodetypes="cccsscc" /></svg>